<svg width="64" height="64" viewBox="0 0 64 64" fill="none" xmlns="http://www.w3.org/2000/svg">
<g clip-path="url(#clip0_2_2)">
<path d="M13.0273 46.3359C12.9753 46.1797 12.9492 45.9323 12.9492 45.5938C12.9492 45.2552 12.9753 45.0469 13.0273 44.9688C13.0534 44.9427 13.1185 44.9036 13.2227 44.8516C13.3529 44.7734 13.4831 44.6953 13.6133 44.6172C13.7695 44.5391 13.9128 44.474 14.043 44.4219C14.1992 44.3438 14.3164 44.2917 14.3945 44.2656C15.5404 43.9531 16.6732 43.6146 17.793 43.25C18.9388 42.8854 20.0586 42.4688 21.1523 42C22.2461 41.5312 23.3008 40.9974 24.3164 40.3984C25.332 39.7734 26.3086 39.0443 27.2461 38.2109C29.4857 36.1797 31.0872 34.4349 32.0508 32.9766C33.0404 31.4922 33.5612 30.2422 33.6133 29.2266C33.6654 28.2109 33.3398 27.4036 32.6367 26.8047C31.9596 26.1797 31.0872 25.724 30.0195 25.4375C28.9779 25.125 27.819 24.9557 26.543 24.9297C25.293 24.9036 24.1211 24.9688 23.0273 25.125C21.9596 25.2812 21.0482 25.5026 20.293 25.7891C19.5638 26.0755 19.1862 26.375 19.1602 26.6875L17.793 40.2422C17.7669 40.4766 17.6367 40.6589 17.4023 40.7891C17.194 40.8932 16.9596 40.9453 16.6992 40.9453C16.4648 40.9453 16.2435 40.8932 16.0352 40.7891C15.8529 40.6589 15.7617 40.4766 15.7617 40.2422V29.3438H13.0273C13.0013 29.2917 12.9883 29.1875 12.9883 29.0312C12.9883 28.849 13.0013 28.7318 13.0273 28.6797C13.1315 28.5495 13.3008 28.3281 13.5352 28.0156C13.7956 27.6771 14.069 27.3255 14.3555 26.9609C14.6419 26.5964 14.9154 26.2578 15.1758 25.9453C15.4362 25.6328 15.6315 25.4245 15.7617 25.3203C15.7878 24.9818 15.8268 24.3958 15.8789 23.5625C15.957 22.7292 16.0221 21.8438 16.0742 20.9062C16.1523 19.9688 16.2174 19.0833 16.2695 18.25C16.3477 17.3906 16.3997 16.8047 16.4258 16.4922C16.4779 15.7891 16.3997 15.2943 16.1914 15.0078C16.0091 14.6953 15.7487 14.5391 15.4102 14.5391C15.0716 14.513 14.694 14.6042 14.2773 14.8125C13.8607 14.9948 13.444 15.2292 13.0273 15.5156C12.6107 15.8021 12.2201 16.1016 11.8555 16.4141C11.4909 16.7266 11.2044 16.974 10.9961 17.1562C10.7878 17.3646 10.4232 17.7292 9.90234 18.25C9.38151 18.7448 8.83464 19.2917 8.26172 19.8906C7.6888 20.4635 7.14193 21.0104 6.62109 21.5312C6.10026 22.026 5.7487 22.3776 5.56641 22.5859H3.53516C3.30078 21.8568 3.44401 21.0885 3.96484 20.2812C4.51172 19.4479 5.31901 18.6016 6.38672 17.7422C7.45443 16.8828 8.71745 16.0234 10.1758 15.1641C11.6602 14.3047 13.2227 13.4974 14.8633 12.7422C16.5039 11.9609 18.1445 11.2448 19.7852 10.5938C21.4518 9.94271 23.0013 9.39583 24.4336 8.95312C25.8919 8.48438 27.168 8.13281 28.2617 7.89844C29.3555 7.66406 30.1497 7.58594 30.6445 7.66406C31.1133 7.76823 31.4128 8.02865 31.543 8.44531C31.6732 8.86198 31.6992 9.33073 31.6211 9.85156C31.543 10.3464 31.3997 10.8411 31.1914 11.3359C31.0091 11.8307 30.8268 12.1953 30.6445 12.4297C29.8372 13.5755 29.0951 14.6172 28.418 15.5547C27.7409 16.4661 27.0378 17.3385 26.3086 18.1719C25.6055 18.9792 24.8372 19.7995 24.0039 20.6328C23.1966 21.4401 22.2591 22.3255 21.1914 23.2891C22.0768 23.4453 22.9232 23.4714 23.7305 23.3672C24.5638 23.263 25.3711 23.1589 26.1523 23.0547C26.9596 22.9245 27.7799 22.8594 28.6133 22.8594C29.4727 22.8333 30.3841 22.9766 31.3477 23.2891C31.9206 23.4714 32.4284 23.6667 32.8711 23.875C33.3138 24.0833 33.6914 24.3307 34.0039 24.6172C34.3424 24.9036 34.6159 25.2682 34.8242 25.7109C35.0586 26.1276 35.2539 26.6615 35.4102 27.3125C35.7487 28.875 35.6185 30.3984 35.0195 31.8828C34.4206 33.3672 33.5091 34.7734 32.2852 36.1016C31.0872 37.4297 29.681 38.6797 28.0664 39.8516C26.4518 40.9974 24.8112 42.0391 23.1445 42.9766C21.4779 43.9141 19.8633 44.7214 18.3008 45.3984C16.7643 46.0755 15.4622 46.6094 14.3945 47C14.1081 47.1302 13.8346 47.1172 13.5742 46.9609C13.3138 46.7786 13.1315 46.5703 13.0273 46.3359ZM19.1602 22.5859C19.3424 22.4297 19.6029 22.1823 19.9414 21.8438C20.306 21.4792 20.7096 21.0755 21.1523 20.6328C21.6211 20.1901 22.1029 19.7344 22.5977 19.2656C23.0924 18.7708 23.5482 18.3021 23.9648 17.8594C24.4076 17.3906 24.7982 16.974 25.1367 16.6094C25.5013 16.2448 25.7617 15.9714 25.918 15.7891C26.1784 15.5286 26.4909 15.151 26.8555 14.6562C27.2461 14.1354 27.6237 13.6276 27.9883 13.1328C28.3529 12.612 28.6654 12.1562 28.9258 11.7656C29.1862 11.375 29.3164 11.1406 29.3164 11.0625V9.03125C28.5352 8.90104 27.6107 8.96615 26.543 9.22656C25.5013 9.48698 24.4596 9.82552 23.418 10.2422C22.3763 10.6328 21.3997 11.0495 20.4883 11.4922C19.6029 11.9089 18.9258 12.2214 18.457 12.4297L19.1602 13.7578V22.5859Z" fill="black"/>
<path d="M37.0273 55.3359C36.9753 55.1797 36.9492 54.9323 36.9492 54.5938C36.9492 54.2552 36.9753 54.0469 37.0273 53.9688C37.0534 53.9427 37.1185 53.9036 37.2227 53.8516C37.3529 53.7734 37.4831 53.6953 37.6133 53.6172C37.7695 53.5391 37.9128 53.474 38.043 53.4219C38.1992 53.3438 38.3164 53.2917 38.3945 53.2656C39.5404 52.9531 40.6732 52.6146 41.793 52.25C42.9388 51.8854 44.0586 51.4688 45.1523 51C46.2461 50.5312 47.3008 49.9974 48.3164 49.3984C49.332 48.7734 50.3086 48.0443 51.2461 47.2109C53.4857 45.1797 55.0872 43.4349 56.0508 41.9766C57.0404 40.4922 57.5612 39.2422 57.6133 38.2266C57.6654 37.2109 57.3398 36.4036 56.6367 35.8047C55.9596 35.1797 55.0872 34.724 54.0195 34.4375C52.9779 34.125 51.819 33.9557 50.543 33.9297C49.293 33.9036 48.1211 33.9688 47.0273 34.125C45.9596 34.2812 45.0482 34.5026 44.293 34.7891C43.5638 35.0755 43.1862 35.375 43.1602 35.6875L41.793 49.2422C41.7669 49.4766 41.6367 49.6589 41.4023 49.7891C41.194 49.8932 40.9596 49.9453 40.6992 49.9453C40.4648 49.9453 40.2435 49.8932 40.0352 49.7891C39.8529 49.6589 39.7617 49.4766 39.7617 49.2422V38.3438H37.0273C37.0013 38.2917 36.9883 38.1875 36.9883 38.0312C36.9883 37.849 37.0013 37.7318 37.0273 37.6797C37.1315 37.5495 37.3008 37.3281 37.5352 37.0156C37.7956 36.6771 38.069 36.3255 38.3555 35.9609C38.6419 35.5964 38.9154 35.2578 39.1758 34.9453C39.4362 34.6328 39.6315 34.4245 39.7617 34.3203C39.7878 33.9818 39.8268 33.3958 39.8789 32.5625C39.957 31.7292 40.0221 30.8438 40.0742 29.9062C40.1523 28.9688 40.2174 28.0833 40.2695 27.25C40.3477 26.3906 40.3997 25.8047 40.4258 25.4922C40.4779 24.7891 40.3997 24.2943 40.1914 24.0078C40.0091 23.6953 39.7487 23.5391 39.4102 23.5391C39.0716 23.513 38.694 23.6042 38.2773 23.8125C37.8607 23.9948 37.444 24.2292 37.0273 24.5156C36.6107 24.8021 36.2201 25.1016 35.8555 25.4141C35.4909 25.7266 35.2044 25.974 34.9961 26.1562C34.7878 26.3646 34.4232 26.7292 33.9023 27.25C33.3815 27.7448 32.8346 28.2917 32.2617 28.8906C31.6888 29.4635 31.1419 30.0104 30.6211 30.5312C30.1003 31.026 29.7487 31.3776 29.5664 31.5859H27.5352C27.3008 30.8568 27.444 30.0885 27.9648 29.2812C28.5117 28.4479 29.319 27.6016 30.3867 26.7422C31.4544 25.8828 32.7174 25.0234 34.1758 24.1641C35.6602 23.3047 37.2227 22.4974 38.8633 21.7422C40.5039 20.9609 42.1445 20.2448 43.7852 19.5938C45.4518 18.9427 47.0013 18.3958 48.4336 17.9531C49.8919 17.4844 51.168 17.1328 52.2617 16.8984C53.3555 16.6641 54.1497 16.5859 54.6445 16.6641C55.1133 16.7682 55.4128 17.0286 55.543 17.4453C55.6732 17.862 55.6992 18.3307 55.6211 18.8516C55.543 19.3464 55.3997 19.8411 55.1914 20.3359C55.0091 20.8307 54.8268 21.1953 54.6445 21.4297C53.8372 22.5755 53.0951 23.6172 52.418 24.5547C51.7409 25.4661 51.0378 26.3385 50.3086 27.1719C49.6055 27.9792 48.8372 28.7995 48.0039 29.6328C47.1966 30.4401 46.2591 31.3255 45.1914 32.2891C46.0768 32.4453 46.9232 32.4714 47.7305 32.3672C48.5638 32.263 49.3711 32.1589 50.1523 32.0547C50.9596 31.9245 51.7799 31.8594 52.6133 31.8594C53.4727 31.8333 54.3841 31.9766 55.3477 32.2891C55.9206 32.4714 56.4284 32.6667 56.8711 32.875C57.3138 33.0833 57.6914 33.3307 58.0039 33.6172C58.3424 33.9036 58.6159 34.2682 58.8242 34.7109C59.0586 35.1276 59.2539 35.6615 59.4102 36.3125C59.7487 37.875 59.6185 39.3984 59.0195 40.8828C58.4206 42.3672 57.5091 43.7734 56.2852 45.1016C55.0872 46.4297 53.681 47.6797 52.0664 48.8516C50.4518 49.9974 48.8112 51.0391 47.1445 51.9766C45.4779 52.9141 43.8633 53.7214 42.3008 54.3984C40.7643 55.0755 39.4622 55.6094 38.3945 56C38.1081 56.1302 37.8346 56.1172 37.5742 55.9609C37.3138 55.7786 37.1315 55.5703 37.0273 55.3359ZM43.1602 31.5859C43.3424 31.4297 43.6029 31.1823 43.9414 30.8438C44.306 30.4792 44.7096 30.0755 45.1523 29.6328C45.6211 29.1901 46.1029 28.7344 46.5977 28.2656C47.0924 27.7708 47.5482 27.3021 47.9648 26.8594C48.4076 26.3906 48.7982 25.974 49.1367 25.6094C49.5013 25.2448 49.7617 24.9714 49.918 24.7891C50.1784 24.5286 50.4909 24.151 50.8555 23.6562C51.2461 23.1354 51.6237 22.6276 51.9883 22.1328C52.3529 21.612 52.6654 21.1562 52.9258 20.7656C53.1862 20.375 53.3164 20.1406 53.3164 20.0625V18.0312C52.5352 17.901 51.6107 17.9661 50.543 18.2266C49.5013 18.487 48.4596 18.8255 47.418 19.2422C46.3763 19.6328 45.3997 20.0495 44.4883 20.4922C43.6029 20.9089 42.9258 21.2214 42.457 21.4297L43.1602 22.7578V31.5859Z" fill="black"/>
</g>
<defs>
<clipPath id="clip0_2_2">
<rect width="64" height="64" fill="white"/>
</clipPath>
</defs>
</svg>
